<svg xmlns="http://www.w3.org/2000/svg" viewBox="0 0 100 100" width="100" height="100">
  <defs>
    <!-- Premium white/silver gradient for the logo mark -->
    <linearGradient id="logo-grad" x1="0%" y1="0%" x2="100%" y2="100%">
      <stop offset="0%" stop-color="#ffffff" />
      <stop offset="100%" stop-color="#d4d4d8" />
    </linearGradient>
  </defs>
  <!-- Rounded Premium Black Background -->
  <rect width="100" height="100" rx="22" fill="#09090b" />
  <!-- Main Ring with Gap -->
  <path d="M 66.9 86.3 A 40 40 0 1 1 86.3 66.9 L 69.9 59.3 A 22 22 0 1 0 59.3 69.9 Z" fill="url(#logo-grad)" transform="translate(10, 10) scale(0.8)" />
  <!-- Detached Wedge -->
  <path d="M 72.8 81.3 C 74.5 83.0 77.3 83.0 79.0 81.3 C 83.0 77.3 83.0 74.5 81.3 72.8 L 73.0 64.5 C 71.3 62.8 68.5 62.8 66.8 64.5 C 62.8 68.5 62.8 71.3 64.5 73.0 Z" fill="url(#logo-grad)" transform="translate(10, 10) scale(0.8)" />
</svg>