<svg xmlns="http://www.w3.org/2000/svg" viewBox="0 0 100 100" width="100" height="100">
  <defs>
    <!-- Premium white/silver gradient for the logo mark -->
    <linearGradient id="logo-grad" x1="0%" y1="0%" x2="100%" y2="100%">
      <stop offset="0%" stop-color="#ffffff" />
      <stop offset="100%" stop-color="#d4d4d8" />
    </linearGradient>
  </defs>
  <!-- Rounded Premium Black Background -->
  <rect width="100" height="100" rx="22" fill="#09090b" />
  <!-- Main Ring with Gap -->
  <path d="M 47.87 10.00 L 51.18 10.00 L 51.66 10.47 L 55.44 10.47 L 55.92 10.95 L 57.81 10.95 L 58.28 11.42 L 60.18 11.42 L 60.65 11.89 L 61.60 11.89 L 62.07 12.37 L 63.02 12.37 L 64.44 13.31 L 65.38 13.31 L 65.86 13.79 L 66.33 13.79 L 66.80 14.26 L 68.22 14.73 L 69.17 15.68 L 70.59 16.15 L 71.54 17.10 L 72.01 17.10 L 73.43 18.52 L 73.91 18.52 L 80.53 25.15 L 80.53 25.62 L 81.48 26.57 L 81.48 27.04 L 82.43 27.99 L 82.43 28.46 L 83.37 29.41 L 83.85 30.83 L 84.32 31.30 L 84.32 31.78 L 84.79 32.25 L 84.79 32.72 L 85.74 34.14 L 85.74 35.09 L 86.69 36.51 L 86.69 37.93 L 87.16 38.40 L 87.16 39.35 L 87.63 39.82 L 87.63 41.24 L 88.11 41.72 L 88.11 44.08 L 88.58 44.56 L 88.58 54.50 L 88.11 54.97 L 88.11 57.34 L 87.63 57.81 L 87.63 59.23 L 87.16 59.70 L 87.16 60.18 L 86.69 59.70 L 85.74 59.70 L 84.32 58.76 L 83.37 58.76 L 82.90 58.28 L 82.43 58.28 L 81.95 57.81 L 80.53 57.34 L 80.06 56.86 L 79.11 56.86 L 78.64 56.39 L 78.17 56.39 L 77.69 55.92 L 77.22 55.92 L 75.80 54.97 L 74.85 54.97 L 74.38 54.50 L 73.91 54.50 L 72.96 53.55 L 72.96 52.60 L 73.43 52.13 L 73.43 46.92 L 72.96 46.45 L 72.96 44.08 L 72.49 43.61 L 72.49 42.19 L 71.54 40.77 L 71.54 39.82 L 70.59 38.40 L 70.12 36.98 L 68.70 35.56 L 68.70 35.09 L 63.49 29.88 L 63.02 29.88 L 62.07 28.93 L 61.60 28.93 L 61.12 28.46 L 60.65 28.46 L 60.18 27.99 L 59.70 27.99 L 58.28 27.04 L 57.34 27.04 L 55.92 26.09 L 54.02 26.09 L 53.55 25.62 L 45.03 25.62 L 44.56 26.09 L 43.14 26.09 L 42.66 26.57 L 41.72 26.57 L 41.24 27.04 L 39.82 27.51 L 39.35 27.99 L 38.88 27.99 L 38.40 28.46 L 37.93 28.46 L 37.46 28.93 L 36.04 29.41 L 34.14 31.30 L 33.67 31.30 L 30.83 34.14 L 30.83 34.62 L 29.41 36.04 L 29.41 36.51 L 28.46 37.46 L 28.46 37.93 L 27.99 38.40 L 27.99 38.88 L 27.04 40.30 L 27.04 40.77 L 26.57 41.24 L 26.57 42.19 L 26.09 42.66 L 26.09 44.08 L 25.62 44.56 L 25.62 46.92 L 25.15 47.40 L 25.15 51.18 L 25.62 51.66 L 25.62 54.50 L 26.09 54.97 L 26.09 56.39 L 27.04 57.81 L 27.04 58.76 L 27.51 59.23 L 27.51 59.70 L 28.46 61.12 L 28.46 61.60 L 29.41 62.54 L 29.41 63.02 L 30.83 64.44 L 30.83 64.91 L 34.14 68.22 L 34.62 68.22 L 36.04 69.64 L 37.46 70.12 L 38.40 71.07 L 39.82 71.54 L 40.30 72.01 L 41.24 72.01 L 41.72 72.49 L 42.66 72.49 L 43.14 72.96 L 44.56 72.96 L 45.03 73.43 L 54.02 73.43 L 54.50 73.91 L 54.50 74.38 L 54.97 74.85 L 54.97 75.33 L 55.44 75.80 L 55.44 76.27 L 56.39 77.69 L 56.39 78.64 L 56.86 79.11 L 56.86 79.59 L 57.34 80.06 L 57.81 81.48 L 58.28 81.95 L 58.28 82.90 L 58.76 83.37 L 59.23 84.79 L 60.18 86.21 L 60.18 87.63 L 59.70 87.63 L 59.23 88.11 L 57.34 88.11 L 56.86 88.58 L 54.02 88.58 L 53.55 89.05 L 45.03 89.05 L 44.56 88.58 L 42.19 88.58 L 41.72 88.11 L 40.30 88.11 L 39.82 87.63 L 38.40 87.63 L 37.93 87.16 L 36.98 87.16 L 36.51 86.69 L 35.56 86.69 L 35.09 86.21 L 34.14 86.21 L 33.67 85.74 L 33.20 85.74 L 32.72 85.27 L 32.25 85.27 L 30.83 84.32 L 30.36 84.32 L 29.41 83.37 L 27.99 82.90 L 27.04 81.95 L 26.57 81.95 L 25.15 80.53 L 24.67 80.53 L 18.99 74.85 L 18.99 74.38 L 17.57 72.96 L 17.57 72.49 L 16.15 71.07 L 16.15 70.59 L 15.68 70.12 L 15.68 69.64 L 15.21 69.17 L 15.21 68.70 L 14.26 67.28 L 13.79 65.86 L 12.84 64.44 L 12.84 63.49 L 12.37 63.02 L 12.37 62.07 L 11.89 61.60 L 11.89 60.65 L 11.42 60.18 L 11.42 58.76 L 10.95 58.28 L 10.95 56.39 L 10.47 55.92 L 10.47 52.60 L 10.00 52.13 L 10.00 46.92 L 10.47 46.45 L 10.47 42.66 L 10.95 42.19 L 10.95 40.77 L 11.42 40.30 L 11.42 38.88 L 11.89 38.40 L 11.89 36.98 L 12.84 35.56 L 12.84 34.62 L 13.79 33.20 L 14.26 31.78 L 14.73 31.30 L 14.73 30.83 L 15.68 29.41 L 15.68 28.93 L 16.63 27.99 L 16.63 27.51 L 18.05 26.09 L 18.05 25.62 L 19.47 24.20 L 19.47 23.73 L 24.20 18.99 L 24.67 18.99 L 26.09 17.57 L 26.57 17.57 L 28.93 15.68 L 29.41 15.68 L 29.88 15.21 L 30.36 15.21 L 30.83 14.73 L 31.30 14.73 L 31.78 14.26 L 33.20 13.79 L 34.62 12.84 L 35.56 12.84 L 36.98 11.89 L 38.40 11.89 L 38.88 11.42 L 39.82 11.42 L 40.30 10.95 L 42.66 10.95 L 43.14 10.47 L 47.40 10.47 L 47.87 10.00 Z" fill="url(#logo-grad)" />
  <!-- Detached Wedge -->
  <path d="M 61.12 56.86 L 65.38 56.86 L 65.86 57.34 L 66.80 57.34 L 67.28 57.81 L 68.70 58.28 L 69.17 58.76 L 70.12 58.76 L 71.54 59.70 L 72.49 59.70 L 72.96 60.18 L 73.43 60.18 L 73.91 60.65 L 74.38 60.65 L 74.85 61.12 L 75.33 61.12 L 75.80 61.60 L 76.27 61.60 L 77.69 62.54 L 78.64 62.54 L 79.11 63.02 L 79.59 63.02 L 81.01 63.96 L 81.48 63.96 L 82.90 64.91 L 83.85 64.91 L 84.32 65.38 L 84.79 65.38 L 86.21 66.33 L 86.69 66.33 L 87.16 66.80 L 87.63 66.80 L 89.05 68.22 L 89.05 68.70 L 90.00 70.12 L 90.00 74.38 L 89.05 75.80 L 89.05 76.27 L 76.27 89.05 L 75.80 89.05 L 74.38 90.00 L 70.59 90.00 L 70.12 89.53 L 69.17 89.53 L 68.22 88.58 L 67.75 88.58 L 67.28 88.11 L 67.28 87.63 L 66.33 86.69 L 66.33 85.74 L 65.86 85.27 L 65.38 83.85 L 64.44 82.43 L 64.44 81.48 L 63.96 81.01 L 63.96 80.53 L 63.49 80.06 L 63.02 78.64 L 62.54 78.17 L 62.54 77.22 L 62.07 76.75 L 62.07 76.27 L 62.07 75.80 L 62.07 75.33 L 60.65 73.91 L 60.65 72.96 L 60.18 72.49 L 60.18 72.01 L 59.23 70.59 L 58.76 69.17 L 58.28 68.70 L 58.28 67.75 L 57.81 67.28 L 57.81 66.80 L 57.34 66.33 L 57.34 65.38 L 56.86 64.91 L 56.86 61.60 L 57.34 61.12 L 57.81 59.70 L 60.18 57.34 L 60.65 57.34 L 61.12 56.86 Z" fill="url(#logo-grad)" />
</svg>